<svg width="36" height="36" viewBox="0 0 36 36" fill="none" xmlns="http://www.w3.org/2000/svg">
<path fill-rule="evenodd" clip-rule="evenodd" d="M18 36C27.9411 36 36 27.9411 36 18C36 8.05887 27.9411 0 18 0C8.05887 0 0 8.05887 0 18C0 27.9411 8.05887 36 18 36Z" fill="#D8D8D8"/>
<path fill-rule="evenodd" clip-rule="evenodd" d="M13.5201 13.224C13.5201 10.8909 15.411 9 17.7441 9C20.0771 9 21.9681 10.8909 21.9681 13.224V13.928C21.9681 16.2611 20.0771 18.152 17.7441 18.152C15.411 18.152 13.5201 16.2611 13.5201 13.928V13.224ZM10.2627 23.1433C11.3039 21.7895 14.9225 20.264 17.7427 20.264C20.5629 20.264 24.1829 21.7902 25.2241 23.1433C25.8675 23.9803 25.255 25.192 24.1997 25.192H11.2871C10.2318 25.192 9.61926 23.9803 10.2627 23.1433Z" fill="#72809D"/>
</svg>
